<svg id="visual" viewBox="0 0 900 450" width="900" height="450" xmlns="http://www.w3.org/2000/svg" xmlns:xlink="http://www.w3.org/1999/xlink" version="1.1"><g fill="#ccafff"><circle r="38" cx="558" cy="34"></circle><circle r="17" cx="888" cy="231"></circle><circle r="29" cx="117" cy="83"></circle><circle r="33" cx="618" cy="431"></circle><circle r="24" cx="18" cy="63"></circle><circle r="27" cx="170" cy="399"></circle><circle r="26" cx="722" cy="433"></circle><circle r="23" cx="489" cy="227"></circle><circle r="19" cx="428" cy="413"></circle><circle r="26" cx="550" cy="341"></circle><circle r="16" cx="316" cy="190"></circle><circle r="34" cx="335" cy="440"></circle><circle r="35" cx="809" cy="344"></circle><circle r="22" cx="651" cy="302"></circle><circle r="33" cx="122" cy="248"></circle><circle r="21" cx="692" cy="69"></circle><circle r="32" cx="609" cy="216"></circle><circle r="35" cx="275" cy="61"></circle><circle r="35" cx="235" cy="180"></circle><circle r="21" cx="338" cy="264"></circle><circle r="35" cx="27" cy="445"></circle><circle r="17" cx="343" cy="95"></circle><circle r="30" cx="378" cy="339"></circle><circle r="20" cx="869" cy="28"></circle><circle r="25" cx="158" cy="325"></circle><circle r="32" cx="201" cy="4"></circle><circle r="32" cx="748" cy="131"></circle><circle r="33" cx="290" cy="331"></circle><circle r="36" cx="9" cy="355"></circle><circle r="24" cx="617" cy="87"></circle><circle r="23" cx="893" cy="136"></circle><circle r="16" cx="411" cy="194"></circle><circle r="16" cx="52" cy="158"></circle></g></svg>